<?xml version="1.0" encoding="UTF-8" standalone="no"?>
<svg
   width="147"
   height="28"
   viewBox="0 0 147 28"
   fill="none"
   version="1.1"
   id="svg2"
   sodipodi:docname="6571cd8955f9e7f772615986_logo.svg"
   inkscape:version="1.4 (86a8ad7, 2024-10-11)"
   xmlns:inkscape="http://www.inkscape.org/namespaces/inkscape"
   xmlns:sodipodi="http://sodipodi.sourceforge.net/DTD/sodipodi-0.dtd"
   xmlns="http://www.w3.org/2000/svg"
   xmlns:svg="http://www.w3.org/2000/svg">
  <defs
     id="defs2" />
  <sodipodi:namedview
     id="namedview2"
     pagecolor="#ffffff"
     bordercolor="#000000"
     borderopacity="0.25"
     inkscape:showpageshadow="true"
     inkscape:pageopacity="0.0"
     inkscape:pagecheckerboard="true"
     inkscape:deskcolor="#d1d1d1"
     inkscape:zoom="11.313709"
     inkscape:cx="76.058173"
     inkscape:cy="3.4029514"
     inkscape:window-width="1920"
     inkscape:window-height="1017"
     inkscape:window-x="-8"
     inkscape:window-y="-8"
     inkscape:window-maximized="1"
     inkscape:current-layer="svg2" />
  <path
     fill-rule="evenodd"
     clip-rule="evenodd"
     d="M18.6917 21.441C17.3339 22.2989 15.7249 22.7955 14 22.7955C12.2107 22.7955 10.5462 22.2612 9.15731 21.3434L5.42968 25.071C7.79801 26.9071 10.7714 28 14 28C17.165 28 20.0846 26.9498 22.4295 25.1788L18.6917 21.441ZM25.2257 22.3671C26.9683 20.0329 28 17.1369 28 14C28 10.7714 26.9071 7.79801 25.071 5.42968L21.3434 9.15731C22.2612 10.5462 22.7955 12.2107 22.7955 14C22.7955 15.6965 22.3151 17.2809 21.483 18.6245L25.2257 22.3671ZM9.37551 6.51697C10.7191 5.68487 12.3035 5.20453 14 5.20453C15.6318 5.20453 17.1598 5.6489 18.4696 6.42325L22.224 2.66889C19.915 0.990175 17.0731 0 14 0C10.8631 0 7.96708 1.03172 5.63289 2.77435L9.37551 6.51697ZM6.559 9.30831L2.82119 5.57051C1.05022 7.91539 0 10.835 0 14C0 17.0731 0.990175 19.915 2.66889 22.224L6.42325 18.4696C5.6489 17.1598 5.20453 15.6318 5.20453 14C5.20453 12.2751 5.70106 10.6661 6.559 9.30831Z"
     fill="white"
     id="path1" />
  <path
     d="m 46.8435,19.6756 c -1.2077,0 -2.2629,-0.2744 -3.1656,-0.8234 -0.9027,-0.5489 -1.6041,-1.3114 -2.1043,-2.2873 -0.5001,-0.9881 -0.7502,-2.1347 -0.7502,-3.44 0,-1.3175 0.2562,-2.4764 0.7685,-3.47665 0.5246,-1.0125 1.2626,-1.79932 2.2141,-2.36046 0.9637,-0.57334 2.1043,-0.86001 3.4218,-0.86001 1.5004,0 2.7447,0.35986 3.7328,1.07959 0.9881,0.71972 1.6285,1.71392 1.9213,2.98263 H 50.2653 C 50.0701,9.89223 49.7163,9.42867 49.204,9.09931 48.6916,8.75774 48.0329,8.58696 47.2278,8.58696 c -1.2809,0 -2.269,0.40866 -2.9643,1.22597 -0.6954,0.80517 -1.043,1.91517 -1.043,3.33027 0,1.4151 0.3415,2.5129 1.0247,3.2937 0.6953,0.7685 1.6346,1.1527 2.8179,1.1527 1.1589,0 2.0311,-0.311 2.6166,-0.9332 0.5978,-0.6343 0.897781,-0.665164 1.066656,-1.728927 1.182656,0.01013 1.176805,-0.02264 2.362794,-0.05729 -0.228331,1.016453 -0.549797,1.653736 -1.359278,2.52678 -0.217974,0.741217 -1.749758,1.559059 -2.527572,1.78465 -0.6222,0.3293 -1.4151,0.494 -2.3788,0.494 z M 58.1964,19.4561 V 8.53206 H 54.4635 V 6.64735 h 9.8261 V 8.53206 H 60.5385 V 19.4561 Z m 11.8224,0 V 6.64735 h 4.7392 c 1.0247,0 1.8725,0.17079 2.5435,0.51235 0.6709,0.34157 1.1711,0.81122 1.5004,1.40896 0.3294,0.59774 0.4941,1.26867 0.4941,2.01284 0,0.7075 -0.1586,1.3601 -0.4758,1.9579 -0.3171,0.5855 -0.8112,1.0612 -1.4821,1.4272 -0.671,0.3538 -1.531,0.5307 -2.5801,0.5307 h -2.397 v 4.9588 z m 2.3422,-6.8618 h 2.2506 c 0.8174,0 1.4029,-0.1769 1.7567,-0.5307 0.3659,-0.366 0.5489,-0.86 0.5489,-1.4821 0,-0.63438 -0.183,-1.12843 -0.5489,-1.48219 C 76.0145,8.73334 75.429,8.55036 74.6116,8.55036 H 72.361 Z m 8.5346,6.8618 v -9.0759 h 2.086 l 0.2196,1.7017 c 0.3294,-0.5855 0.7746,-1.0491 1.3358,-1.3907 0.5733,-0.3537 1.2442,-0.5306 2.0128,-0.5306 v 2.4702 H 85.891 c -0.5123,0 -0.9698,0.0793 -1.3723,0.2379 -0.4026,0.1586 -0.7198,0.4331 -0.9515,0.8234 -0.2196,0.3904 -0.3294,0.9332 -0.3294,1.6286 v 4.1354 z m 11.2661,0.2195 c -0.8783,0 -1.6712,-0.2012 -2.3787,-0.6038 -0.6954,-0.4026 -1.2504,-0.9576 -1.6652,-1.6651 -0.4025,-0.7198 -0.6038,-1.5493 -0.6038,-2.4886 0,-0.9393 0.2074,-1.7627 0.6221,-2.4702 0.4148,-0.7198 0.9698,-1.2809 1.6652,-1.6835 0.7075,-0.4025 1.5004,-0.6038 2.3787,-0.6038 0.8661,0 1.6468,0.2013 2.3422,0.6038 0.7075,0.4026 1.2625,0.9637 1.6651,1.6835 0.4148,0.7075 0.6221,1.5309 0.6221,2.4702 0,0.9393 -0.2073,1.7688 -0.6221,2.4886 -0.4026,0.7075 -0.9576,1.2625 -1.6651,1.6651 -0.7076,0.4026 -1.4944,0.6038 -2.3605,0.6038 z m 0,-2.0311 c 0.6099,0 1.1406,-0.2256 1.5919,-0.677 0.4514,-0.4635 0.6771,-1.1467 0.6771,-2.0494 0,-0.9027 -0.2257,-1.5797 -0.6771,-2.0311 -0.4513,-0.4635 -0.9759,-0.6953 -1.5736,-0.6953 -0.6221,0 -1.1589,0.2318 -1.6102,0.6953 -0.4392,0.4514 -0.6588,1.1284 -0.6588,2.0311 0,0.9027 0.2196,1.5859 0.6588,2.0494 0.4513,0.4514 0.982,0.677 1.5919,0.677 z m 10.2453,1.8116 c -0.951,0 -1.714,-0.2318 -2.287,-0.6954 -0.5735,-0.4635 -0.8602,-1.2869 -0.8602,-2.4702 v -3.9524 h -1.5553 v -1.9579 h 1.5553 l 0.2745,-2.43368 h 2.0677 v 2.43368 h 2.452 v 1.9579 h -2.452 v 3.9707 c 0,0.4391 0.091,0.7441 0.274,0.9149 0.196,0.1586 0.525,0.2379 0.989,0.2379 h 1.134 v 1.9945 z m 7.598,0.2195 c -0.879,0 -1.672,-0.2012 -2.379,-0.6038 -0.696,-0.4026 -1.251,-0.9576 -1.665,-1.6651 -0.403,-0.7198 -0.604,-1.5493 -0.604,-2.4886 0,-0.9393 0.207,-1.7627 0.622,-2.4702 0.415,-0.7198 0.97,-1.2809 1.665,-1.6835 0.708,-0.4025 1.501,-0.6038 2.379,-0.6038 0.866,0 1.647,0.2013 2.342,0.6038 0.708,0.4026 1.263,0.9637 1.665,1.6835 0.415,0.7075 0.622,1.5309 0.622,2.4702 0,0.9393 -0.207,1.7688 -0.622,2.4886 -0.402,0.7075 -0.957,1.2625 -1.665,1.6651 -0.708,0.4026 -1.494,0.6038 -2.36,0.6038 z m 0,-2.0311 c 0.609,0 1.14,-0.2256 1.591,-0.677 0.452,-0.4635 0.678,-1.1467 0.678,-2.0494 0,-0.9027 -0.226,-1.5797 -0.678,-2.0311 -0.451,-0.4635 -0.975,-0.6953 -1.573,-0.6953 -0.622,0 -1.159,0.2318 -1.61,0.6953 -0.44,0.4514 -0.659,1.1284 -0.659,2.0311 0,0.9027 0.219,1.5859 0.659,2.0494 0.451,0.4514 0.982,0.677 1.592,0.677 z m 11.005,2.0311 c -0.927,0 -1.745,-0.2012 -2.452,-0.6038 -0.708,-0.4026 -1.269,-0.9637 -1.684,-1.6834 -0.402,-0.7198 -0.603,-1.5432 -0.603,-2.4703 0,-0.9271 0.201,-1.7505 0.603,-2.4702 0.415,-0.7198 0.976,-1.2809 1.684,-1.6835 0.707,-0.4025 1.525,-0.6038 2.452,-0.6038 1.159,0 2.135,0.305 2.928,0.9149 0.792,0.5977 1.299,1.4273 1.518,2.4886 h -2.47 c -0.122,-0.4392 -0.366,-0.7808 -0.732,-1.0247 -0.354,-0.2562 -0.774,-0.3843 -1.262,-0.3843 -0.647,0 -1.196,0.244 -1.647,0.7319 -0.452,0.488 -0.677,1.165 -0.677,2.0311 0,0.8661 0.225,1.5432 0.677,2.0311 0.451,0.488 1,0.7319 1.647,0.7319 0.488,0 0.908,-0.122 1.262,-0.3659 0.366,-0.244 0.61,-0.5917 0.732,-1.043 h 2.47 c -0.219,1.0247 -0.726,1.8481 -1.518,2.4702 -0.793,0.6222 -1.769,0.9332 -2.928,0.9332 z m 10.697,0 c -0.878,0 -1.671,-0.2012 -2.379,-0.6038 -0.695,-0.4026 -1.25,-0.9576 -1.665,-1.6651 -0.402,-0.7198 -0.604,-1.5493 -0.604,-2.4886 0,-0.9393 0.208,-1.7627 0.623,-2.4702 0.414,-0.7198 0.969,-1.2809 1.665,-1.6835 0.707,-0.4025 1.5,-0.6038 2.378,-0.6038 0.867,0 1.647,0.2013 2.343,0.6038 0.707,0.4026 1.262,0.9637 1.665,1.6835 0.414,0.7075 0.622,1.5309 0.622,2.4702 0,0.9393 -0.208,1.7688 -0.622,2.4886 -0.403,0.7075 -0.958,1.2625 -1.665,1.6651 -0.708,0.4026 -1.495,0.6038 -2.361,0.6038 z m 0,-2.0311 c 0.61,0 1.141,-0.2256 1.592,-0.677 0.451,-0.4635 0.677,-1.1467 0.677,-2.0494 0,-0.9027 -0.226,-1.5797 -0.677,-2.0311 -0.451,-0.4635 -0.976,-0.6953 -1.574,-0.6953 -0.622,0 -1.158,0.2318 -1.61,0.6953 -0.439,0.4514 -0.659,1.1284 -0.659,2.0311 0,0.9027 0.22,1.5859 0.659,2.0494 0.452,0.4514 0.982,0.677 1.592,0.677 z m 6.559,1.8116 V 6.28139 h 2.342 V 19.4561 Z"
     fill="#ffffff"
     id="path2"
     sodipodi:nodetypes="cccsccsscccscscscccccscccccccccccsccsccsccccccscscccscccccsccsccsscsccsccsccsssscscscssssccccccccccscsccssscsccsccscssssscscscssscsccsccccscscsccccssscsccsccsccsscscscscscccccc" />
</svg>
